{
  "accessors": [
    {
      "bufferView": 2,
      "componentType": 5126,
      "count": 31654,
      "max": [
        0.20128782093524933,
        0.7859019041061401,
        0.14325132966041565
      ],
      "min": [
        -0.17419062554836273,
        0.23251914978027344,
        -0.2618224024772644
      ],
      "type": "VEC3"
    },
    {
      "bufferView": 2,
      "byteOffset": 379848,
      "componentType": 5126,
      "count": 31654,
      "max": [
        0.9999999403953552,
        0.9999964237213135,
        0.9999906420707703
      ],
      "min": [
        -0.9999940395355225,
        -0.9999456405639648,
        -0.9999992251396179
      ],
      "type": "VEC3"
    },
    {
      "bufferView": 3,
      "componentType": 5126,
      "count": 31654,
      "max": [
        0.9995853304862976,
        0.9999882578849792,
        0.9999755024909973,
        -1.0
      ],
      "min": [
        -0.9999861121177673,
        -0.9999934434890747,
        -0.9999812841415405,
        -1.0
      ],
      "type": "VEC4"
    },
    {
      "bufferView": 1,
      "componentType": 5126,
      "count": 31654,
      "max": [
        0.9977954030036926,
        0.9999633431434631
      ],
      "min": [
        5.0365604693070054e-05,
        4.51207160949707e-05
      ],
      "type": "VEC2"
    },
    {
      "bufferView": 1,
      "byteOffset": 253232,
      "componentType": 5126,
      "count": 31654,
      "max": [
        0.9977954030036926,
        0.9999633431434631
      ],
      "min": [
        5.0365604693070054e-05,
        4.51207160949707e-05
      ],
      "type": "VEC2"
    },
    {
      "bufferView": 1,
      "byteOffset": 506464,
      "componentType": 5126,
      "count": 31654,
      "max": [
        0.9977954030036926,
        0.9999633431434631
      ],
      "min": [
        5.0365604693070054e-05,
        4.51207160949707e-05
      ],
      "type": "VEC2"
    },
    {
      "bufferView": 1,
      "byteOffset": 759696,
      "componentType": 5126,
      "count": 31654,
      "max": [
        0.9977954030036926,
        0.9999633431434631
      ],
      "min": [
        5.0365604693070054e-05,
        4.51207160949707e-05
      ],
      "type": "VEC2"
    },
    {
      "bufferView": 1,
      "byteOffset": 1012928,
      "componentType": 5126,
      "count": 31654,
      "max": [
        0.9977954030036926,
        0.9999633431434631
      ],
      "min": [
        5.0365604693070054e-05,
        4.51207160949707e-05
      ],
      "type": "VEC2"
    },
    {
      "bufferView": 0,
      "componentType": 5125,
      "count": 146892,
      "type": "SCALAR"
    }
  ],
  "asset": {
    "extras": {
      "author": "Marco De Simone (https://sketchfab.com/marcodesimone888)",
      "license": "CC-BY-4.0 (http://creativecommons.org/licenses/by/4.0/)",
      "source": "https://sketchfab.com/3d-models/decorator-vase-8c9a6c5188694c70b3042f417ce4e700",
      "title": "Decorator vase"
    },
    "generator": "Sketchfab-16.16.0",
    "version": "2.0"
  },
  "bufferViews": [
    {
      "buffer": 0,
      "byteLength": 587568,
      "name": "floatBufferViews",
      "target": 34963
    },
    {
      "buffer": 0,
      "byteLength": 1266160,
      "byteOffset": 587568,
      "byteStride": 8,
      "name": "floatBufferViews",
      "target": 34962
    },
    {
      "buffer": 0,
      "byteLength": 759696,
      "byteOffset": 1853728,
      "byteStride": 12,
      "name": "floatBufferViews",
      "target": 34962
    },
    {
      "buffer": 0,
      "byteLength": 506464,
      "byteOffset": 2613424,
      "byteStride": 16,
      "name": "floatBufferViews",
      "target": 34962
    }
  ],
  "buffers": [
    {
      "byteLength": 3119888,
      "uri": "scene.bin"
    }
  ],
  "images": [
    {
      "uri": "textures/material_0_baseColor.jpeg"
    },
    {
      "uri": "textures/material_0_metallicRoughness.png"
    },
    {
      "uri": "textures/material_0_normal.jpeg"
    }
  ],
  "materials": [
    {
      "name": "material_0",
      "normalTexture": {
        "index": 2
      },
      "occlusionTexture": {
        "index": 1
      },
      "pbrMetallicRoughness": {
        "baseColorTexture": {
          "index": 0
        },
        "metallicFactor": 0.0,
        "metallicRoughnessTexture": {
          "index": 1
        }
      }
    }
  ],
  "meshes": [
    {
      "name": "Object_0",
      "primitives": [
        {
          "attributes": {
            "NORMAL": 1,
            "POSITION": 0,
            "TANGENT": 2,
            "TEXCOORD_0": 3,
            "TEXCOORD_1": 4,
            "TEXCOORD_2": 5,
            "TEXCOORD_3": 6,
            "TEXCOORD_4": 7
          },
          "indices": 8,
          "material": 0,
          "mode": 4
        }
      ]
    }
  ],
  "nodes": [
    {
      "children": [
        1
      ],
      "matrix": [
        1.0,
        0.0,
        0.0,
        0.0,
        0.0,
        2.220446049250313e-16,
        -1.0,
        0.0,
        0.0,
        1.0,
        2.220446049250313e-16,
        0.0,
        0.0,
        0.0,
        0.0,
        1.0
      ],
      "name": "Sketchfab_model"
    },
    {
      "children": [
        2
      ],
      "name": "root"
    },
    {
      "children": [
        3
      ],
      "matrix": [
        1.0,
        0.0,
        0.0,
        0.0,
        0.0,
        2.220446049250313e-16,
        1.0,
        0.0,
        0.0,
        -1.0,
        2.220446049250313e-16,
        0.0,
        0.0,
        0.0,
        0.0,
        1.0
      ],
      "name": "GLTF_SceneRootNode"
    },
    {
      "children": [
        4
      ],
      "name": "_0"
    },
    {
      "mesh": 0,
      "name": "Object_4"
    }
  ],
  "samplers": [
    {
      "magFilter": 9729,
      "minFilter": 9729,
      "wrapS": 10497,
      "wrapT": 10497
    }
  ],
  "scene": 0,
  "scenes": [
    {
      "name": "Sketchfab_Scene",
      "nodes": [
        0
      ]
    }
  ],
  "textures": [
    {
      "sampler": 0,
      "source": 0
    },
    {
      "sampler": 0,
      "source": 1
    },
    {
      "sampler": 0,
      "source": 2
    }
  ]
}
