{
  "accessors": [
    {
      "bufferView": 2,
      "componentType": 5126,
      "count": 386,
      "max": [
        73.65148162841797,
        36.201900482177734,
        70.21826171875
      ],
      "min": [
        -70.49382781982422,
        -55.295494079589844,
        -71.71602630615234
      ],
      "type": "VEC3"
    },
    {
      "bufferView": 2,
      "byteOffset": 4632,
      "componentType": 5126,
      "count": 386,
      "max": [
        0.996002197265625,
        0.9887182116508484,
        0.9670547246932983
      ],
      "min": [
        -0.9928250312805176,
        -0.9557568430900574,
        -0.999503493309021
      ],
      "type": "VEC3"
    },
    {
      "bufferView": 3,
      "componentType": 5126,
      "count": 386,
      "max": [
        0.9998317360877991,
        0.9372341632843018,
        0.9713808298110962,
        1.0
      ],
      "min": [
        -0.6775853037834167,
        -0.9983410239219666,
        -0.835395336151123,
        1.0
      ],
      "type": "VEC4"
    },
    {
      "bufferView": 1,
      "componentType": 5126,
      "count": 386,
      "max": [
        0.8107727766036987,
        0.9991913437843323
      ],
      "min": [
        0.0008086542948149145,
        0.0008087158203125
      ],
      "type": "VEC2"
    },
    {
      "bufferView": 0,
      "componentType": 5125,
      "count": 1917,
      "type": "SCALAR"
    },
    {
      "bufferView": 2,
      "byteOffset": 9264,
      "componentType": 5126,
      "count": 10914,
      "max": [
        138.17811584472656,
        22.31264877319336,
        20.263761520385742
      ],
      "min": [
        -30.372314453125,
        -284.3525085449219,
        -20.263761520385742
      ],
      "type": "VEC3"
    },
    {
      "bufferView": 2,
      "byteOffset": 140232,
      "componentType": 5126,
      "count": 10914,
      "max": [
        1.0,
        1.0,
        1.0
      ],
      "min": [
        -1.0,
        -1.0,
        -1.0
      ],
      "type": "VEC3"
    },
    {
      "bufferView": 3,
      "byteOffset": 6176,
      "componentType": 5126,
      "count": 10914,
      "max": [
        0.9734036326408386,
        1.0,
        1.0,
        1.0
      ],
      "min": [
        -0.9734036922454834,
        -1.0,
        -1.0,
        1.0
      ],
      "type": "VEC4"
    },
    {
      "bufferView": 1,
      "byteOffset": 3088,
      "componentType": 5126,
      "count": 10914,
      "max": [
        0.999087393283844,
        0.999087393283844
      ],
      "min": [
        0.0009125904180109501,
        0.004603028297424316
      ],
      "type": "VEC2"
    },
    {
      "bufferView": 0,
      "byteOffset": 7668,
      "componentType": 5125,
      "count": 35766,
      "type": "SCALAR"
    }
  ],
  "asset": {
    "extras": {
      "author": "loxfear (https://sketchfab.com/loxfear)",
      "license": "CC-BY-4.0 (http://creativecommons.org/licenses/by/4.0/)",
      "source": "https://sketchfab.com/3d-models/rusty-radiator-37aedf976c6c4264a122f30562ca2aac",
      "title": "Rusty Radiator"
    },
    "generator": "Sketchfab-12.68.0",
    "version": "2.0"
  },
  "bufferViews": [
    {
      "buffer": 0,
      "byteLength": 150732,
      "name": "floatBufferViews",
      "target": 34963
    },
    {
      "buffer": 0,
      "byteLength": 90400,
      "byteOffset": 150732,
      "byteStride": 8,
      "name": "floatBufferViews",
      "target": 34962
    },
    {
      "buffer": 0,
      "byteLength": 271200,
      "byteOffset": 241132,
      "byteStride": 12,
      "name": "floatBufferViews",
      "target": 34962
    },
    {
      "buffer": 0,
      "byteLength": 180800,
      "byteOffset": 512332,
      "byteStride": 16,
      "name": "floatBufferViews",
      "target": 34962
    }
  ],
  "buffers": [
    {
      "byteLength": 693132,
      "uri": "scene.bin"
    }
  ],
  "images": [
    {
      "uri": "textures/Mat.1_baseColor.png"
    },
    {
      "uri": "textures/Mat.1_metallicRoughness.png"
    },
    {
      "uri": "textures/Mat.1_normal.png"
    },
    {
      "uri": "textures/material_baseColor.png"
    },
    {
      "uri": "textures/material_metallicRoughness.png"
    },
    {
      "uri": "textures/material_normal.png"
    }
  ],
  "materials": [
    {
      "doubleSided": true,
      "name": "Mat.1",
      "normalTexture": {
        "index": 2
      },
      "pbrMetallicRoughness": {
        "baseColorTexture": {
          "index": 0
        },
        "metallicRoughnessTexture": {
          "index": 1
        },
        "roughnessFactor": 0.48
      }
    },
    {
      "doubleSided": true,
      "name": "material",
      "normalTexture": {
        "index": 5
      },
      "pbrMetallicRoughness": {
        "baseColorTexture": {
          "index": 3
        },
        "metallicRoughnessTexture": {
          "index": 4
        },
        "roughnessFactor": 0.29
      }
    }
  ],
  "meshes": [
    {
      "name": "Object_0",
      "primitives": [
        {
          "attributes": {
            "NORMAL": 1,
            "POSITION": 0,
            "TANGENT": 2,
            "TEXCOORD_0": 3
          },
          "indices": 4,
          "material": 0,
          "mode": 4
        }
      ]
    },
    {
      "name": "Object_1",
      "primitives": [
        {
          "attributes": {
            "NORMAL": 6,
            "POSITION": 5,
            "TANGENT": 7,
            "TEXCOORD_0": 8
          },
          "indices": 9,
          "material": 1,
          "mode": 4
        }
      ]
    }
  ],
  "nodes": [
    {
      "children": [
        1
      ],
      "matrix": [
        1.0,
        0.0,
        0.0,
        0.0,
        0.0,
        2.220446049250313e-16,
        -1.0,
        0.0,
        0.0,
        1.0,
        2.220446049250313e-16,
        0.0,
        0.0,
        0.0,
        0.0,
        1.0
      ],
      "name": "Sketchfab_model"
    },
    {
      "children": [
        2
      ],
      "matrix": [
        1.0,
        0.0,
        0.0,
        0.0,
        0.0,
        0.0,
        1.0,
        0.0,
        0.0,
        -1.0,
        0.0,
        0.0,
        0.0,
        0.0,
        0.0,
        1.0
      ],
      "name": "9af0fd55b6824bc4b26f63f6a68554f7.fbx"
    },
    {
      "children": [
        3,
        5
      ],
      "name": "RootNode"
    },
    {
      "children": [
        4
      ],
      "matrix": [
        0.8800308704378262,
        0.34120025880144084,
        -0.33034535030823886,
        0.0,
        0.04550557907368751,
        0.6318045719033859,
        0.7737908148816108,
        0.0,
        0.4727313289275542,
        -0.6959923608171353,
        0.540481012001883,
        0.0,
        209.86386918817374,
        130.02852683722352,
        7.391062797110094,
        1.0
      ],
      "name": "Plane_1"
    },
    {
      "mesh": 0,
      "name": "Object_4"
    },
    {
      "children": [
        6
      ],
      "matrix": [
        2.220446049250313e-16,
        1.0,
        0.0,
        0.0,
        -1.0,
        2.220446049250313e-16,
        0.0,
        0.0,
        0.0,
        0.0,
        1.0,
        0.0,
        -14.641929220425904,
        29.4028244583671,
        0.0,
        1.0
      ],
      "name": "Radiator_low"
    },
    {
      "mesh": 1,
      "name": "Object_6"
    }
  ],
  "samplers": [
    {
      "magFilter": 9729,
      "minFilter": 9987,
      "wrapS": 10497,
      "wrapT": 10497
    }
  ],
  "scene": 0,
  "scenes": [
    {
      "name": "Sketchfab_Scene",
      "nodes": [
        0
      ]
    }
  ],
  "textures": [
    {
      "sampler": 0,
      "source": 0
    },
    {
      "sampler": 0,
      "source": 1
    },
    {
      "sampler": 0,
      "source": 2
    },
    {
      "sampler": 0,
      "source": 3
    },
    {
      "sampler": 0,
      "source": 4
    },
    {
      "sampler": 0,
      "source": 5
    }
  ]
}
