{
  "accessors": [
    {
      "bufferView": 2,
      "componentType": 5126,
      "count": 160,
      "max": [
        33.125,
        13.25,
        70.0625
      ],
      "min": [
        -30.8416690826416,
        -15.25,
        4.125
      ],
      "type": "VEC3"
    },
    {
      "bufferView": 2,
      "byteOffset": 1920,
      "componentType": 5126,
      "count": 160,
      "max": [
        1.0,
        1.0,
        1.0
      ],
      "min": [
        -1.0,
        -1.0,
        -1.0
      ],
      "type": "VEC3"
    },
    {
      "bufferView": 3,
      "componentType": 5126,
      "count": 160,
      "max": [
        6.661338147750939e-16,
        3.3215196256778255e-31,
        1.0,
        1.0
      ],
      "min": [
        -1.0,
        -1.9375533500776017e-31,
        -1.0,
        -1.0
      ],
      "type": "VEC4"
    },
    {
      "bufferView": 1,
      "componentType": 5126,
      "count": 160,
      "max": [
        0.9999588131904602,
        1.0
      ],
      "min": [
        -3.88578111558364e-16,
        -1.1497459789907362e-17
      ],
      "type": "VEC2"
    },
    {
      "bufferView": 0,
      "componentType": 5125,
      "count": 240,
      "type": "SCALAR"
    },
    {
      "bufferView": 2,
      "byteOffset": 3840,
      "componentType": 5126,
      "count": 1200,
      "max": [
        34.91896438598633,
        14.146980285644531,
        73.5625
      ],
      "min": [
        -32.63563537597656,
        -16.14698028564453,
        -7.105426679974644e-14
      ],
      "type": "VEC3"
    },
    {
      "bufferView": 2,
      "byteOffset": 18240,
      "componentType": 5126,
      "count": 1200,
      "max": [
        1.0,
        1.0,
        8.075004865155309e-19
      ],
      "min": [
        -1.0,
        -1.0,
        -8.075004865155309e-19
      ],
      "type": "VEC3"
    },
    {
      "bufferView": 3,
      "byteOffset": 2560,
      "componentType": 5126,
      "count": 1200,
      "max": [
        5.70988973268883e-19,
        5.70988973268883e-19,
        -1.0,
        1.0
      ],
      "min": [
        -5.70988973268883e-19,
        -5.70988973268883e-19,
        -1.0,
        -1.0
      ],
      "type": "VEC4"
    },
    {
      "bufferView": 1,
      "byteOffset": 1280,
      "componentType": 5126,
      "count": 1200,
      "max": [
        0.9988685250282288,
        1.0612859725952148
      ],
      "min": [
        -6.217248937900877e-15,
        -1.859623989763611e-15
      ],
      "type": "VEC2"
    },
    {
      "bufferView": 0,
      "byteOffset": 960,
      "componentType": 5125,
      "count": 2304,
      "type": "SCALAR"
    }
  ],
  "asset": {
    "extras": {
      "author": "jimbogies (https://sketchfab.com/jimbogies)",
      "license": "CC-BY-4.0 (http://creativecommons.org/licenses/by/4.0/)",
      "source": "https://sketchfab.com/3d-models/basket-shelving-for-store-or-warehouse-48b5af11696c45f3970b2a036162bda9",
      "title": "Basket Shelving for Store or Warehouse"
    },
    "generator": "Sketchfab-14.32.1",
    "version": "2.0"
  },
  "bufferViews": [
    {
      "buffer": 0,
      "byteLength": 10176,
      "name": "floatBufferViews",
      "target": 34963
    },
    {
      "buffer": 0,
      "byteLength": 10880,
      "byteOffset": 10176,
      "byteStride": 8,
      "name": "floatBufferViews",
      "target": 34962
    },
    {
      "buffer": 0,
      "byteLength": 32640,
      "byteOffset": 21056,
      "byteStride": 12,
      "name": "floatBufferViews",
      "target": 34962
    },
    {
      "buffer": 0,
      "byteLength": 21760,
      "byteOffset": 53696,
      "byteStride": 16,
      "name": "floatBufferViews",
      "target": 34962
    }
  ],
  "buffers": [
    {
      "byteLength": 75456,
      "uri": "scene.bin"
    }
  ],
  "images": [
    {
      "uri": "textures/Basket_Diffuse_baseColor.png"
    },
    {
      "uri": "textures/Basket_Diffuse_metallicRoughness.png"
    },
    {
      "uri": "textures/Basket_Diffuse_normal.jpeg"
    },
    {
      "uri": "textures/Rail_diffuse_baseColor.jpeg"
    },
    {
      "uri": "textures/Rail_diffuse_metallicRoughness.png"
    },
    {
      "uri": "textures/Rail_diffuse_normal.png"
    }
  ],
  "materials": [
    {
      "alphaCutoff": 0.6201923663005449,
      "alphaMode": "MASK",
      "name": "Basket_Diffuse",
      "normalTexture": {
        "index": 2,
        "scale": 0.2971437627238483
      },
      "pbrMetallicRoughness": {
        "baseColorTexture": {
          "index": 0
        },
        "metallicRoughnessTexture": {
          "index": 1
        }
      }
    },
    {
      "name": "Rail_diffuse",
      "normalTexture": {
        "index": 5,
        "scale": 0.23009593934000558
      },
      "pbrMetallicRoughness": {
        "baseColorTexture": {
          "index": 3
        },
        "metallicRoughnessTexture": {
          "index": 4
        }
      }
    }
  ],
  "meshes": [
    {
      "name": "Material2",
      "primitives": [
        {
          "attributes": {
            "NORMAL": 1,
            "POSITION": 0,
            "TANGENT": 2,
            "TEXCOORD_0": 3
          },
          "indices": 4,
          "material": 0,
          "mode": 4
        }
      ]
    },
    {
      "name": "Material2",
      "primitives": [
        {
          "attributes": {
            "NORMAL": 6,
            "POSITION": 5,
            "TANGENT": 7,
            "TEXCOORD_0": 8
          },
          "indices": 9,
          "material": 1,
          "mode": 4
        }
      ]
    }
  ],
  "nodes": [
    {
      "children": [
        1
      ],
      "matrix": [
        1.0,
        0.0,
        0.0,
        0.0,
        0.0,
        2.220446049250313e-16,
        -1.0,
        0.0,
        0.0,
        1.0,
        2.220446049250313e-16,
        0.0,
        0.0,
        0.0,
        0.0,
        1.0
      ],
      "name": "Sketchfab_model"
    },
    {
      "children": [
        2,
        3,
        4
      ],
      "name": "Collada visual scene group"
    },
    {
      "mesh": 0,
      "name": "Material2"
    },
    {
      "mesh": 1,
      "name": "Material2"
    },
    {
      "children": [
        5
      ],
      "name": "SketchUp"
    },
    {
      "children": [
        6
      ],
      "matrix": [
        0.8858616,
        0.4639497,
        -1.387779e-17,
        0.0,
        -0.114496,
        0.2186177,
        0.9690701,
        0.0,
        0.4495998,
        -0.858462,
        0.2467854,
        0.0,
        82.21104,
        -132.194,
        78.02401,
        1.0
      ],
      "name": "skp_camera_Last_Saved_SketchUp_View"
    },
    {
      "name": "ID1"
    }
  ],
  "samplers": [
    {
      "magFilter": 9729,
      "minFilter": 9987,
      "wrapS": 10497,
      "wrapT": 10497
    }
  ],
  "scene": 0,
  "scenes": [
    {
      "name": "Sketchfab_Scene",
      "nodes": [
        0
      ]
    }
  ],
  "textures": [
    {
      "sampler": 0,
      "source": 0
    },
    {
      "sampler": 0,
      "source": 1
    },
    {
      "sampler": 0,
      "source": 2
    },
    {
      "sampler": 0,
      "source": 3
    },
    {
      "sampler": 0,
      "source": 4
    },
    {
      "sampler": 0,
      "source": 5
    }
  ]
}
