{
  "accessors": [
    {
      "bufferView": 2,
      "componentType": 5126,
      "count": 21306,
      "max": [
        1.6633068323135376,
        3.707542896270752,
        7.754874229431152
      ],
      "min": [
        -1.6633068323135376,
        -2.043956756591797,
        6.556510925292969e-05
      ],
      "type": "VEC3"
    },
    {
      "bufferView": 2,
      "byteOffset": 255672,
      "componentType": 5126,
      "count": 21306,
      "max": [
        1.0,
        1.0,
        1.0
      ],
      "min": [
        -1.0,
        -1.0,
        -1.0
      ],
      "type": "VEC3"
    },
    {
      "bufferView": 3,
      "componentType": 5126,
      "count": 21306,
      "max": [
        1.0,
        1.0,
        1.0,
        1.0
      ],
      "min": [
        -1.0,
        -1.0,
        -1.0,
        -1.0
      ],
      "type": "VEC4"
    },
    {
      "bufferView": 1,
      "componentType": 5126,
      "count": 21306,
      "max": [
        0.9927965402603149,
        0.9955058693885803
      ],
      "min": [
        0.005161572247743607,
        0.007770031690597534
      ],
      "type": "VEC2"
    },
    {
      "bufferView": 1,
      "byteOffset": 170448,
      "componentType": 5126,
      "count": 21306,
      "max": [
        0.9927965402603149,
        0.9955058693885803
      ],
      "min": [
        0.005161572247743607,
        0.007770031690597534
      ],
      "type": "VEC2"
    },
    {
      "bufferView": 1,
      "byteOffset": 340896,
      "componentType": 5126,
      "count": 21306,
      "max": [
        0.9927965402603149,
        0.9955058693885803
      ],
      "min": [
        0.005161572247743607,
        0.007770031690597534
      ],
      "type": "VEC2"
    },
    {
      "bufferView": 0,
      "componentType": 5125,
      "count": 67908,
      "type": "SCALAR"
    }
  ],
  "asset": {
    "extras": {
      "author": "sui (https://sketchfab.com/jjosh.wwashington)",
      "license": "CC-BY-4.0 (http://creativecommons.org/licenses/by/4.0/)",
      "source": "https://sketchfab.com/3d-models/cleaning-cart-ea42d30fb06443988f443459593cb2af",
      "title": "Cleaning Cart"
    },
    "generator": "Sketchfab-16.29.0",
    "version": "2.0"
  },
  "bufferViews": [
    {
      "buffer": 0,
      "byteLength": 271632,
      "name": "floatBufferViews",
      "target": 34963
    },
    {
      "buffer": 0,
      "byteLength": 511344,
      "byteOffset": 271632,
      "byteStride": 8,
      "name": "floatBufferViews",
      "target": 34962
    },
    {
      "buffer": 0,
      "byteLength": 511344,
      "byteOffset": 782976,
      "byteStride": 12,
      "name": "floatBufferViews",
      "target": 34962
    },
    {
      "buffer": 0,
      "byteLength": 340896,
      "byteOffset": 1294320,
      "byteStride": 16,
      "name": "floatBufferViews",
      "target": 34962
    }
  ],
  "buffers": [
    {
      "byteLength": 1635216,
      "uri": "scene.bin"
    }
  ],
  "images": [
    {
      "uri": "textures/CleaningTools_baseColor.png"
    },
    {
      "uri": "textures/CleaningTools_metallicRoughness.png"
    },
    {
      "uri": "textures/CleaningTools_normal.png"
    }
  ],
  "materials": [
    {
      "doubleSided": true,
      "name": "CleaningTools",
      "normalTexture": {
        "index": 2,
        "texCoord": 1
      },
      "occlusionTexture": {
        "index": 1
      },
      "pbrMetallicRoughness": {
        "baseColorTexture": {
          "index": 0
        },
        "metallicRoughnessTexture": {
          "index": 1
        }
      }
    }
  ],
  "meshes": [
    {
      "name": "CT_CartBody_CleaningTools_0",
      "primitives": [
        {
          "attributes": {
            "NORMAL": 1,
            "POSITION": 0,
            "TANGENT": 2,
            "TEXCOORD_0": 3,
            "TEXCOORD_1": 4,
            "TEXCOORD_2": 5
          },
          "indices": 6,
          "material": 0,
          "mode": 4
        }
      ]
    }
  ],
  "nodes": [
    {
      "children": [
        1
      ],
      "matrix": [
        1.0,
        0.0,
        0.0,
        0.0,
        0.0,
        2.220446049250313e-16,
        -1.0,
        0.0,
        0.0,
        1.0,
        2.220446049250313e-16,
        0.0,
        0.0,
        0.0,
        0.0,
        1.0
      ],
      "name": "Sketchfab_model"
    },
    {
      "children": [
        2
      ],
      "matrix": [
        0.009999999776482582,
        0.0,
        0.0,
        0.0,
        0.0,
        0.0,
        0.009999999776482582,
        0.0,
        0.0,
        -0.009999999776482582,
        0.0,
        0.0,
        0.0,
        0.0,
        0.0,
        1.0
      ],
      "name": "CleaningCart.fbx"
    },
    {
      "children": [
        3
      ],
      "name": "RootNode"
    },
    {
      "children": [
        4
      ],
      "matrix": [
        100.0,
        0.0,
        0.0,
        0.0,
        0.0,
        -1.629206793918314e-05,
        -99.99999999999868,
        0.0,
        0.0,
        99.99999999999868,
        -1.629206793918314e-05,
        0.0,
        0.0,
        0.0,
        0.0,
        1.0
      ],
      "name": "CT_CartBody"
    },
    {
      "mesh": 0,
      "name": "CT_CartBody_CleaningTools_0"
    }
  ],
  "samplers": [
    {
      "magFilter": 9729,
      "minFilter": 9987,
      "wrapS": 10497,
      "wrapT": 10497
    }
  ],
  "scene": 0,
  "scenes": [
    {
      "name": "Sketchfab_Scene",
      "nodes": [
        0
      ]
    }
  ],
  "textures": [
    {
      "sampler": 0,
      "source": 0
    },
    {
      "sampler": 0,
      "source": 1
    },
    {
      "sampler": 0,
      "source": 2
    }
  ]
}
