{
  "accessors": [
    {
      "bufferView": 2,
      "componentType": 5126,
      "count": 1235,
      "max": [
        0.9777471423149109,
        0.4968946874141693,
        0.9450904130935669
      ],
      "min": [
        -0.9924156069755554,
        -0.49081915616989136,
        -0.9063262343406677
      ],
      "type": "VEC3"
    },
    {
      "bufferView": 2,
      "byteOffset": 14820,
      "componentType": 5126,
      "count": 1235,
      "max": [
        0.9974717497825623,
        0.997947096824646,
        0.9947264790534973
      ],
      "min": [
        -0.9982296824455261,
        -0.9875586032867432,
        -0.9992765188217163
      ],
      "type": "VEC3"
    },
    {
      "bufferView": 3,
      "componentType": 5126,
      "count": 1235,
      "max": [
        0.998401939868927,
        0.9865016937255859,
        0.9975464344024658,
        1.0
      ],
      "min": [
        -0.9973614811897278,
        -0.9999900460243225,
        -0.9977819919586182,
        -1.0
      ],
      "type": "VEC4"
    },
    {
      "bufferView": 1,
      "componentType": 5126,
      "count": 1235,
      "max": [
        0.9835011959075928,
        0.9981672763824463
      ],
      "min": [
        0.0018038824200630188,
        0.0012937597930431366
      ],
      "type": "VEC2"
    },
    {
      "bufferView": 1,
      "byteOffset": 9880,
      "componentType": 5126,
      "count": 1235,
      "max": [
        0.9835011959075928,
        0.9981672763824463
      ],
      "min": [
        0.0018038824200630188,
        0.0012937597930431366
      ],
      "type": "VEC2"
    },
    {
      "bufferView": 1,
      "byteOffset": 19760,
      "componentType": 5126,
      "count": 1235,
      "max": [
        0.9835011959075928,
        0.9981672763824463
      ],
      "min": [
        0.0018038824200630188,
        0.0012937597930431366
      ],
      "type": "VEC2"
    },
    {
      "bufferView": 0,
      "componentType": 5125,
      "count": 5787,
      "type": "SCALAR"
    }
  ],
  "asset": {
    "extras": {
      "author": "Dmytro Nikonov (https://sketchfab.com/dmytronikonov)",
      "license": "CC-BY-4.0 (http://creativecommons.org/licenses/by/4.0/)",
      "source": "https://sketchfab.com/3d-models/cement-bags-low-poly-31a738878cac4b768addb44860d30da3",
      "title": "Cement bags Low-poly"
    },
    "generator": "Sketchfab-16.95.0",
    "version": "2.0"
  },
  "bufferViews": [
    {
      "buffer": 0,
      "byteLength": 23148,
      "name": "floatBufferViews",
      "target": 34963
    },
    {
      "buffer": 0,
      "byteLength": 29640,
      "byteOffset": 23148,
      "byteStride": 8,
      "name": "floatBufferViews",
      "target": 34962
    },
    {
      "buffer": 0,
      "byteLength": 29640,
      "byteOffset": 52788,
      "byteStride": 12,
      "name": "floatBufferViews",
      "target": 34962
    },
    {
      "buffer": 0,
      "byteLength": 19760,
      "byteOffset": 82428,
      "byteStride": 16,
      "name": "floatBufferViews",
      "target": 34962
    }
  ],
  "buffers": [
    {
      "byteLength": 102188,
      "uri": "scene.bin"
    }
  ],
  "images": [
    {
      "uri": "textures/M_cement_baseColor.png"
    },
    {
      "uri": "textures/M_cement_metallicRoughness.png"
    },
    {
      "uri": "textures/M_cement_normal.png"
    }
  ],
  "materials": [
    {
      "name": "M_cement",
      "normalTexture": {
        "index": 2
      },
      "pbrMetallicRoughness": {
        "baseColorTexture": {
          "index": 0
        },
        "metallicFactor": 0.0,
        "metallicRoughnessTexture": {
          "index": 1
        }
      }
    }
  ],
  "meshes": [
    {
      "name": "lp_M_cement_0",
      "primitives": [
        {
          "attributes": {
            "NORMAL": 1,
            "POSITION": 0,
            "TANGENT": 2,
            "TEXCOORD_0": 3,
            "TEXCOORD_1": 4,
            "TEXCOORD_2": 5
          },
          "indices": 6,
          "material": 0,
          "mode": 4
        }
      ]
    }
  ],
  "nodes": [
    {
      "children": [
        1
      ],
      "matrix": [
        1.0,
        0.0,
        0.0,
        0.0,
        0.0,
        2.220446049250313e-16,
        -1.0,
        0.0,
        0.0,
        1.0,
        2.220446049250313e-16,
        0.0,
        0.0,
        0.0,
        0.0,
        1.0
      ],
      "name": "Sketchfab_model"
    },
    {
      "children": [
        2
      ],
      "matrix": [
        0.009999999776482582,
        0.0,
        0.0,
        0.0,
        0.0,
        0.0,
        0.009999999776482582,
        0.0,
        0.0,
        -0.009999999776482582,
        0.0,
        0.0,
        0.0,
        0.0,
        0.0,
        1.0
      ],
      "name": "cement.fbx"
    },
    {
      "children": [
        3
      ],
      "name": "RootNode"
    },
    {
      "children": [
        4
      ],
      "matrix": [
        100.0,
        0.0,
        0.0,
        0.0,
        0.0,
        99.99999999999972,
        -7.5497901264043296e-06,
        0.0,
        0.0,
        7.5497901264043296e-06,
        99.99999999999972,
        0.0,
        0.0,
        0.0,
        0.0,
        1.0
      ],
      "name": "lp"
    },
    {
      "mesh": 0,
      "name": "lp_M_cement_0"
    }
  ],
  "samplers": [
    {
      "magFilter": 9729,
      "minFilter": 9987,
      "wrapS": 10497,
      "wrapT": 10497
    }
  ],
  "scene": 0,
  "scenes": [
    {
      "name": "Sketchfab_Scene",
      "nodes": [
        0
      ]
    }
  ],
  "textures": [
    {
      "sampler": 0,
      "source": 0
    },
    {
      "sampler": 0,
      "source": 1
    },
    {
      "sampler": 0,
      "source": 2
    }
  ]
}
