{
  "accessors": [
    {
      "bufferView": 2,
      "componentType": 5126,
      "count": 1925,
      "max": [
        0.2383228838443756,
        -0.0013934231828898191,
        0.7830079197883606
      ],
      "min": [
        -0.2383228838443756,
        -0.69114089012146,
        0.0
      ],
      "type": "VEC3"
    },
    {
      "bufferView": 2,
      "byteOffset": 23100,
      "componentType": 5126,
      "count": 1925,
      "max": [
        1.0,
        1.0,
        1.0
      ],
      "min": [
        -1.0,
        -1.0,
        -1.0
      ],
      "type": "VEC3"
    },
    {
      "bufferView": 3,
      "componentType": 5126,
      "count": 1925,
      "max": [
        1.0,
        1.0,
        0.9999999403953552,
        1.0
      ],
      "min": [
        -0.9999998807907104,
        -0.9991058707237244,
        -1.0,
        -1.0
      ],
      "type": "VEC4"
    },
    {
      "bufferView": 1,
      "componentType": 5126,
      "count": 1925,
      "max": [
        0.9555070400238037,
        1.0
      ],
      "min": [
        -1.4236728240746288e-08,
        -3.1729076255260225e-08
      ],
      "type": "VEC2"
    },
    {
      "bufferView": 0,
      "componentType": 5125,
      "count": 5748,
      "type": "SCALAR"
    },
    {
      "bufferView": 2,
      "byteOffset": 46200,
      "componentType": 5126,
      "count": 1277,
      "max": [
        0.22809858620166779,
        0.010319799184799194,
        0.024755418300628662
      ],
      "min": [
        -0.22809858620166779,
        -0.4691336750984192,
        -0.013663113117218018
      ],
      "type": "VEC3"
    },
    {
      "bufferView": 2,
      "byteOffset": 61524,
      "componentType": 5126,
      "count": 1277,
      "max": [
        1.0,
        0.9999991655349731,
        0.9999991059303284
      ],
      "min": [
        -1.0,
        -0.9999991655349731,
        -0.9999994039535522
      ],
      "type": "VEC3"
    },
    {
      "bufferView": 3,
      "byteOffset": 30800,
      "componentType": 5126,
      "count": 1277,
      "max": [
        1.0,
        0.9999977350234985,
        0.9983742833137512,
        1.0
      ],
      "min": [
        -0.2146366983652115,
        -0.9999977350234985,
        -0.9999991655349731,
        1.0
      ],
      "type": "VEC4"
    },
    {
      "bufferView": 1,
      "byteOffset": 15400,
      "componentType": 5126,
      "count": 1277,
      "max": [
        0.965634822845459,
        0.9944477081298828
      ],
      "min": [
        0.19610272347927094,
        6.940735541860477e-09
      ],
      "type": "VEC2"
    },
    {
      "bufferView": 0,
      "byteOffset": 22992,
      "componentType": 5125,
      "count": 5184,
      "type": "SCALAR"
    }
  ],
  "asset": {
    "extras": {
      "author": "Mark Peters (https://sketchfab.com/mark-peters)",
      "license": "CC-BY-4.0 (http://creativecommons.org/licenses/by/4.0/)",
      "source": "https://sketchfab.com/3d-models/filthy-prison-toilet-4096px2-b8bdb85f59a44a8ea4b0783c8d22f373",
      "title": "Filthy Prison Toilet - 4096px²"
    },
    "generator": "Sketchfab-16.61.0",
    "version": "2.0"
  },
  "bufferViews": [
    {
      "buffer": 0,
      "byteLength": 43728,
      "name": "floatBufferViews",
      "target": 34963
    },
    {
      "buffer": 0,
      "byteLength": 25616,
      "byteOffset": 43728,
      "byteStride": 8,
      "name": "floatBufferViews",
      "target": 34962
    },
    {
      "buffer": 0,
      "byteLength": 76848,
      "byteOffset": 69344,
      "byteStride": 12,
      "name": "floatBufferViews",
      "target": 34962
    },
    {
      "buffer": 0,
      "byteLength": 51232,
      "byteOffset": 146192,
      "byteStride": 16,
      "name": "floatBufferViews",
      "target": 34962
    }
  ],
  "buffers": [
    {
      "byteLength": 197424,
      "uri": "scene.bin"
    }
  ],
  "extensionsUsed": [
    "KHR_materials_clearcoat"
  ],
  "images": [
    {
      "uri": "textures/PrisonToilet_MTL_baseColor.png"
    },
    {
      "uri": "textures/PrisonToilet_MTL_metallicRoughness.png"
    },
    {
      "uri": "textures/PrisonToilet_MTL_normal.png"
    }
  ],
  "materials": [
    {
      "extensions": {
        "KHR_materials_clearcoat": {
          "clearcoatFactor": 0.16277236923831703,
          "clearcoatRoughnessFactor": 1.0
        }
      },
      "name": "PrisonToilet_MTL",
      "normalTexture": {
        "index": 2
      },
      "pbrMetallicRoughness": {
        "baseColorTexture": {
          "index": 0
        },
        "metallicRoughnessTexture": {
          "index": 1
        }
      }
    }
  ],
  "meshes": [
    {
      "name": "Prison Toilet_PrisonToilet_MTL_0",
      "primitives": [
        {
          "attributes": {
            "NORMAL": 1,
            "POSITION": 0,
            "TANGENT": 2,
            "TEXCOORD_0": 3
          },
          "indices": 4,
          "material": 0,
          "mode": 4
        }
      ]
    },
    {
      "name": "Prison Toilet Lid_PrisonToilet_MTL_0",
      "primitives": [
        {
          "attributes": {
            "NORMAL": 6,
            "POSITION": 5,
            "TANGENT": 7,
            "TEXCOORD_0": 8
          },
          "indices": 9,
          "material": 0,
          "mode": 4
        }
      ]
    }
  ],
  "nodes": [
    {
      "children": [
        1
      ],
      "matrix": [
        1.0,
        0.0,
        0.0,
        0.0,
        0.0,
        2.220446049250313e-16,
        -1.0,
        0.0,
        0.0,
        1.0,
        2.220446049250313e-16,
        0.0,
        0.0,
        0.0,
        0.0,
        1.0
      ],
      "name": "Sketchfab_model"
    },
    {
      "children": [
        2
      ],
      "matrix": [
        0.009999999776482582,
        0.0,
        0.0,
        0.0,
        0.0,
        0.0,
        0.009999999776482582,
        0.0,
        0.0,
        -0.009999999776482582,
        0.0,
        0.0,
        0.0,
        0.0,
        0.0,
        1.0
      ],
      "name": "a89cee25f1904eb4b04658b0abe0f1bf.fbx"
    },
    {
      "children": [
        3,
        5
      ],
      "name": "RootNode"
    },
    {
      "children": [
        4
      ],
      "matrix": [
        100.0,
        0.0,
        0.0,
        0.0,
        0.0,
        -1.629206793918314e-05,
        -99.99999999999868,
        0.0,
        0.0,
        99.99999999999868,
        -1.629206793918314e-05,
        0.0,
        0.0,
        0.0,
        0.0,
        1.0
      ],
      "name": "Prison Toilet"
    },
    {
      "mesh": 0,
      "name": "Prison Toilet_PrisonToilet_MTL_0"
    },
    {
      "children": [
        6
      ],
      "matrix": [
        100.0,
        0.0,
        0.0,
        0.0,
        0.0,
        -99.7564050678865,
        6.975646775156623,
        0.0,
        0.0,
        -6.975646775156623,
        -99.7564050678865,
        0.0,
        0.0,
        41.29422378540039,
        21.495075225830078,
        1.0
      ],
      "name": "Prison Toilet Lid"
    },
    {
      "mesh": 1,
      "name": "Prison Toilet Lid_PrisonToilet_MTL_0"
    }
  ],
  "samplers": [
    {
      "magFilter": 9729,
      "minFilter": 9987,
      "wrapS": 10497,
      "wrapT": 10497
    }
  ],
  "scene": 0,
  "scenes": [
    {
      "name": "Sketchfab_Scene",
      "nodes": [
        0
      ]
    }
  ],
  "textures": [
    {
      "sampler": 0,
      "source": 0
    },
    {
      "sampler": 0,
      "source": 1
    },
    {
      "sampler": 0,
      "source": 2
    }
  ]
}
