{
  "accessors": [
    {
      "bufferView": 2,
      "componentType": 5126,
      "count": 40796,
      "max": [
        4.882083892822266,
        6.662817001342773,
        5.129325866699219
      ],
      "min": [
        -6.021177291870117,
        -8.228874206542969,
        -3.213257074356079
      ],
      "type": "VEC3"
    },
    {
      "bufferView": 2,
      "byteOffset": 489552,
      "componentType": 5126,
      "count": 40796,
      "max": [
        1.0,
        1.0,
        1.0
      ],
      "min": [
        -1.0,
        -1.0,
        -1.0
      ],
      "type": "VEC3"
    },
    {
      "bufferView": 1,
      "componentType": 5126,
      "count": 40796,
      "max": [
        0.5661427974700928,
        0.9783412218093872
      ],
      "min": [
        0.284514456987381,
        0.5201156139373779
      ],
      "type": "VEC2"
    },
    {
      "bufferView": 0,
      "componentType": 5125,
      "count": 212454,
      "type": "SCALAR"
    }
  ],
  "asset": {
    "extras": {
      "author": "AnishRoyalinc (https://sketchfab.com/anishdombale878)",
      "license": "CC-BY-4.0 (http://creativecommons.org/licenses/by/4.0/)",
      "source": "https://sketchfab.com/3d-models/chairbench-rusty-apocalyptic-689e21e0d5fb4614a54dc8486b43dd1c",
      "title": "Chairbench Rusty apocalyptic"
    },
    "generator": "Sketchfab-14.64.0",
    "version": "2.0"
  },
  "bufferViews": [
    {
      "buffer": 0,
      "byteLength": 849816,
      "name": "floatBufferViews",
      "target": 34963
    },
    {
      "buffer": 0,
      "byteLength": 326368,
      "byteOffset": 849816,
      "byteStride": 8,
      "name": "floatBufferViews",
      "target": 34962
    },
    {
      "buffer": 0,
      "byteLength": 979104,
      "byteOffset": 1176184,
      "byteStride": 12,
      "name": "floatBufferViews",
      "target": 34962
    }
  ],
  "buffers": [
    {
      "byteLength": 2155288,
      "uri": "scene.bin"
    }
  ],
  "extensionsUsed": [
    "KHR_materials_specular"
  ],
  "images": [
    {
      "uri": "textures/wooden_ruins_baseColor.png"
    }
  ],
  "materials": [
    {
      "doubleSided": true,
      "extensions": {
        "KHR_materials_specular": {
          "specularColorFactor": [
            1.0,
            1.0,
            1.0
          ],
          "specularFactor": 0.3276200460801404
        }
      },
      "name": "wooden_ruins",
      "pbrMetallicRoughness": {
        "baseColorTexture": {
          "index": 0
        },
        "metallicFactor": 0.4921919762041179,
        "roughnessFactor": 0.1542831368628934
      }
    }
  ],
  "meshes": [
    {
      "name": "NurbsPath.002_wooden ruins_0",
      "primitives": [
        {
          "attributes": {
            "NORMAL": 1,
            "POSITION": 0,
            "TEXCOORD_0": 2
          },
          "indices": 3,
          "material": 0,
          "mode": 4
        }
      ]
    }
  ],
  "nodes": [
    {
      "children": [
        1
      ],
      "matrix": [
        1.0,
        0.0,
        0.0,
        0.0,
        0.0,
        2.220446049250313e-16,
        -1.0,
        0.0,
        0.0,
        1.0,
        2.220446049250313e-16,
        0.0,
        0.0,
        0.0,
        0.0,
        1.0
      ],
      "name": "Sketchfab_model"
    },
    {
      "children": [
        2
      ],
      "matrix": [
        0.009999999776482582,
        0.0,
        0.0,
        0.0,
        0.0,
        0.0,
        0.009999999776482582,
        0.0,
        0.0,
        -0.009999999776482582,
        0.0,
        0.0,
        0.0,
        0.0,
        0.0,
        1.0
      ],
      "name": "ceb26a920bc647b9b95300e93f465be5.fbx"
    },
    {
      "children": [
        3
      ],
      "name": "RootNode"
    },
    {
      "children": [
        4
      ],
      "matrix": [
        8.840169735216554e-06,
        117.09159851074185,
        -8.384857368362998e-13,
        0.0,
        2.4056957668010934e-05,
        -7.868934995790278e-13,
        147.66055297851366,
        0.0,
        132.3305664062479,
        -9.990679816379328e-06,
        -2.1559385871361978e-05,
        0.0,
        507.79705810546875,
        398.4298095703125,
        2329.362548828125,
        1.0
      ],
      "name": "NurbsPath.002"
    },
    {
      "mesh": 0,
      "name": "NurbsPath.002_wooden ruins_0"
    }
  ],
  "samplers": [
    {
      "magFilter": 9729,
      "minFilter": 9987,
      "wrapS": 10497,
      "wrapT": 10497
    }
  ],
  "scene": 0,
  "scenes": [
    {
      "name": "Sketchfab_Scene",
      "nodes": [
        0
      ]
    }
  ],
  "textures": [
    {
      "sampler": 0,
      "source": 0
    }
  ]
}
